<svg width="33" height="36" viewBox="0 0 33 36" fill="none" xmlns="http://www.w3.org/2000/svg">
<path d="M13.0711 2.57881C14.9286 1.0751 17.5846 1.0751 19.4421 2.57881L29.2439 10.5139C31.139 12.0481 31.6714 14.7152 30.5104 16.8593L24.9038 27.2138C24.019 28.8479 22.3101 29.866 20.4518 29.866H12.0613C10.2031 29.866 8.49418 28.8479 7.60938 27.2138L2.0028 16.8593C0.841814 14.7152 1.37413 12.0481 3.26927 10.5139L13.0711 2.57881Z" stroke="black" stroke-width="2.41081"/>
<path d="M11.855 30.5378C11.6949 31.4302 11.7518 32.4061 12.0695 33.2899C12.3183 33.9817 12.693 34.5198 13.1316 34.8821C13.1143 34.8804 13.0961 34.8813 13.0788 34.8791C12.5635 34.8129 12.0721 34.5386 11.6614 34.089C11.2506 33.6393 10.9378 33.0317 10.759 32.3378C10.5803 31.644 10.5431 30.8918 10.6517 30.169L11.855 30.5378Z" fill="black"/>
<path d="M20.9788 30.556C21.1874 31.5021 21.1453 32.5612 20.803 33.5132C20.5544 34.2046 20.1796 34.7421 19.7413 35.1044C19.7809 35.1004 19.8214 35.0989 19.861 35.0924C20.398 35.0042 20.9046 34.6896 21.3168 34.1901C21.729 33.6904 22.0286 33.0273 22.1771 32.2848C22.3255 31.5423 22.3165 30.7534 22.1513 30.0183L20.9788 30.556Z" fill="black"/>
<path d="M11.2447 19.7235V25.4924C11.2447 25.8402 10.7863 25.9667 10.6079 25.6681L6.13683 18.1853C5.98107 17.9246 5.58827 17.9804 5.51126 18.2741L5.20859 19.4287C5.12119 19.7621 4.65159 19.7723 4.5498 19.443L1.44667 9.40412C1.32792 9.01993 1.85371 8.78067 2.06536 9.12259L6.67181 16.564C6.84104 16.8374 7.25967 16.7482 7.3027 16.4296L7.59276 14.2815C7.63697 13.9541 8.07322 13.8727 8.2325 14.1621L11.2022 19.5583C11.2301 19.6089 11.2447 19.6658 11.2447 19.7235Z" fill="black"/>
<path d="M21.2685 19.7235V25.4924C21.2685 25.8402 21.7269 25.9667 21.9053 25.6681L26.3764 18.1853C26.5321 17.9246 26.9249 17.9804 27.0019 18.2741L27.3046 19.4287C27.392 19.7621 27.8616 19.7723 27.9634 19.443L31.0665 9.40412C31.1853 9.01993 30.6595 8.78067 30.4478 9.12259L25.8414 16.564C25.6721 16.8374 25.2535 16.7482 25.2105 16.4296L24.9204 14.2815C24.8762 13.9541 24.44 13.8727 24.2807 14.1621L21.311 19.5583C21.2831 19.6089 21.2685 19.6658 21.2685 19.7235Z" fill="black"/>
</svg>
